<?xml version="1.0" standalone="no"?>
<!DOCTYPE svg PUBLIC "-//W3C//DTD SVG 20010904//EN"
 "http://www.w3.org/TR/2001/REC-SVG-20010904/DTD/svg10.dtd">
<svg version="1.0" xmlns="http://www.w3.org/2000/svg"
 width="192.000000pt" height="192.000000pt" viewBox="0 0 192.000000 192.000000"
 preserveAspectRatio="xMidYMid meet">
<metadata>
Created by potrace 1.10, written by Peter Selinger 2001-2011
</metadata>
<g transform="translate(0.000000,192.000000) scale(0.050000,-0.050000)"
fill="#f8973d" stroke="none">
<path d="M1630 3272 c-517 -101 -1048 -597 -1101 -1028 -5 -41 -18 -123 -29
-183 -25 -138 -26 -282 -2 -243 14 22 20 18 27 -20 5 -26 11 16 12 94 17 862
865 1500 1689 1271 967 -268 1315 -1488 637 -2229 l-113 -123 90 68 90 68 -90
-95 c-49 -52 -150 -136 -224 -186 -74 -51 -130 -99 -125 -107 12 -20 -140 -80
-230 -90 -39 -5 -118 -19 -176 -31 -58 -11 -135 -19 -170 -17 -36 3 -114 2
-175 -1 l-110 -5 110 -21 c973 -182 1820 820 1550 1836 -188 708 -943 1182
-1660 1042z m1590 -1922 c-56 -161 -175 -357 -299 -490 l-103 -110 110 137
c127 159 232 352 285 522 20 65 39 106 42 90 4 -16 -12 -83 -35 -149z"/>
<path d="M2597 2415 c-47 -58 -92 -109 -98 -115 -6 -5 -33 -41 -59 -80 -26
-38 -54 -74 -60 -80 -7 -5 -47 -64 -90 -130 -43 -66 -80 -124 -84 -128 -29
-39 -21 56 24 280 l54 266 -44 36 c-68 55 -75 47 -99 -109 -54 -348 -129 -709
-155 -751 -19 -31 -22 -55 -9 -70 13 -16 13 -61 0 -129 -18 -103 0 -185 42
-185 10 0 31 -5 46 -11 24 -9 31 22 40 160 7 110 22 189 44 222 l32 50 116
-146 c206 -257 389 -395 484 -365 47 15 52 50 7 50 -114 0 -566 509 -523 588
56 106 487 632 517 632 31 0 20 52 -19 87 -55 50 -72 42 -166 -72z"/>
<path d="M1500 2380 c-185 -31 -518 -207 -519 -274 -2 -59 93 -137 108 -90 15
47 186 176 206 156 7 -7 -22 -183 -64 -392 -41 -209 -69 -395 -62 -413 7 -19
2 -41 -12 -49 -30 -18 29 -118 70 -118 38 0 170 104 184 145 6 19 22 32 35 30
13 -3 22 7 19 21 -4 15 1 23 10 17 8 -5 51 22 95 61 44 38 67 63 52 55 -19
-10 -23 -7 -14 8 8 13 26 23 39 23 37 0 136 110 118 130 -8 9 -5 10 8 3 29
-16 152 122 134 151 -8 13 -4 16 10 8 14 -9 46 23 83 81 177 280 -88 517 -500
447z m414 -136 c141 -77 -97 -418 -536 -770 -114 -92 -118 -92 -96 1 25 101
112 535 128 638 20 126 44 146 190 163 139 16 243 5 314 -32z"/>
<path d="M580 1260 c-2 -237 622 -779 956 -830 54 -8 39 2 -56 36 -154 56
-308 133 -294 147 6 5 54 -12 107 -39 104 -53 294 -115 346 -113 17 1 -23 18
-89 37 -145 42 -291 106 -369 161 -62 44 -91 53 -71 21 31 -51 -34 -10 -145
90 -133 121 -237 252 -327 415 -31 58 -57 91 -58 75z"/>
</g>
</svg>
